HIERARCHY
ROOT hip
{
	OFFSET 0.000000 0.000000 0.000000 
	CHANNELS 6 Xposition Yposition Zposition Xrotation Zrotation Yrotation
	JOINT abdomen
	{
		OFFSET 0.000000 3.402643 0.000000 
		CHANNELS 3 Xrotation Zrotation Yrotation
		JOINT chest
		{
			OFFSET 0.000000 8.438565 -0.680529 
			CHANNELS 3 Xrotation Zrotation Yrotation
			JOINT neck
			{
				OFFSET 0.000000 10.207942 -0.272212 
				CHANNELS 3 Xrotation Zrotation Yrotation
				JOINT head
				{
					OFFSET 0.000000 3.130431 0.000000 
					CHANNELS 3 Xrotation Zrotation Yrotation
					End Site
					{
						OFFSET 0.000000 3.130435 0.000000 
					}
				}
			}
			JOINT lCollar
			{
				OFFSET 3.470700 6.669187 -0.816635 
				CHANNELS 3 Yrotation Zrotation Xrotation
				JOINT lShldr
				{
					OFFSET 3.198488 0.000000 0.000000 
					CHANNELS 3 Zrotation Yrotation Xrotation
					JOINT lForeArm
					{
						OFFSET 10.139888 0.000000 0.000000 
						CHANNELS 3 Yrotation Zrotation Xrotation
						JOINT lHand
						{
							OFFSET 8.370511 0.000000 0.000000 
							CHANNELS 3 Zrotation Yrotation Xrotation
							End Site
							{
								OFFSET 4.083176 0.000000 0.000000 
							}
						}
					}
				}
			}
			JOINT rCollar
			{
				OFFSET -3.470700 6.669187 -0.816635 
				CHANNELS 3 Yrotation Zrotation Xrotation
				JOINT rShldr
				{
					OFFSET -3.198488 0.000000 0.000000 
					CHANNELS 3 Zrotation Yrotation Xrotation
					JOINT rForeArm
					{
						OFFSET -10.139888 0.000000 0.000000 
						CHANNELS 3 Yrotation Zrotation Xrotation
						JOINT rHand
						{
							OFFSET -8.370511 0.000000 0.000000 
							CHANNELS 3 Zrotation Yrotation Xrotation
							End Site
							{
								OFFSET -4.083176 0.000000 0.000000 
							}
						}
					}
				}
			}
		}
	}
	JOINT lThigh
	{
		OFFSET 5.308129 -1.633274 1.361059 
		CHANNELS 3 Xrotation Zrotation Yrotation
		JOINT lShin
		{
			OFFSET -2.041588 -20.007561 0.000000 
			CHANNELS 3 Xrotation Zrotation Yrotation
			JOINT lFoot
			{
				OFFSET 0.000000 -19.190928 -1.224953 
				CHANNELS 3 Xrotation Yrotation Zrotation
				End Site
				{
					OFFSET 0.000000 -2.449906 4.627600 
				}
			}
		}
	}
	JOINT rThigh
	{
		OFFSET -5.308129 -1.633274 1.361059 
		CHANNELS 3 Xrotation Zrotation Yrotation
		JOINT rShin
		{
			OFFSET 2.041588 -20.007561 0.000000 
			CHANNELS 3 Xrotation Zrotation Yrotation
			JOINT rFoot
			{
				OFFSET 0.000000 -19.190928 -1.224953 
				CHANNELS 3 Xrotation Yrotation Zrotation
				End Site
				{
					OFFSET 0.000000 -2.449906 4.627600 
				}
			}
		}
	}
}
MOTION
Frames: 13
Frame Time: 0.033333
-0.454502 48.890308 1.834364 -0.048831 0.595703 -0.254414 0.000000 0.000000 0.000000 -4.804763 -0.321133 0.153946 4.297164 -0.164219 0.021666 5.517562 -0.185278 0.009989 0.031545 9.312680 -3.826028 -3.885378 1.955843 -12.375103 0.429103 -5.884504 17.615074 1.843241 -3.777578 -3.508736 -0.354101 -9.810380 -3.874946 1.641254 -6.702917 -11.429818 -0.324003 8.880525 20.210037 -2.910025 8.124614 -3.630917 4.772216 9.272865 8.443520 7.544791 -3.104771 1.417483 -10.484793 0.715053 -7.689991 5.591307 -11.410480 -11.154889 6.845071 2.409970 -5.093161 -9.204169 -0.832493 10.106705 
-0.463815 48.893578 1.829807 -0.009766 0.625000 -0.273544 0.000000 0.000000 0.000000 -4.853602 -0.340571 0.165638 4.316750 -0.154877 0.024734 5.537108 0.058510 -0.042197 0.004081 9.344436 -3.868655 -3.862472 1.947348 -12.178760 0.426099 -5.992300 17.461823 1.856421 -3.992019 -3.510079 -0.338792 -9.909550 -3.929176 1.689306 -6.791133 -11.363354 -0.322138 8.915413 19.975163 -2.719336 8.224479 -3.611230 4.820046 9.242506 8.421196 7.398855 -3.095219 1.378761 -10.442555 0.703892 -7.694622 5.512862 -11.429440 -11.184153 6.878316 2.436217 -5.128765 -9.205628 -0.821365 10.079782 
-0.474386 48.892700 1.812692 -0.019532 0.546875 -0.400577 0.000000 0.000000 0.000000 -4.824290 -0.311393 0.182531 4.268341 0.022679 0.173878 5.644530 -0.048763 0.158771 -0.018135 9.531403 -3.840492 -4.007606 2.113551 -12.070125 0.453104 -5.949476 18.273762 1.953793 -4.299146 -3.516149 -0.360726 -9.849382 -3.897281 1.689263 -6.683656 -11.372490 -0.319075 8.960528 19.585892 -2.639593 7.896727 -3.595349 4.803702 9.373664 8.514188 7.486922 -3.134294 1.322374 -10.473980 0.705690 -7.683560 5.474839 -11.372265 -11.146131 6.875814 2.464308 -5.059260 -9.175874 -0.802388 10.044853 
-0.479672 48.906040 1.790179 -0.078128 0.498046 -0.498726 0.000000 0.000000 0.000000 -4.599633 -0.184949 0.053942 3.926009 -0.158284 0.407305 5.839843 0.019509 0.409215 0.247818 8.905789 -3.645783 -3.533379 2.025569 -12.328115 0.452222 -5.921274 18.107023 1.779259 -4.172847 -3.505608 -0.497086 -9.790135 -3.683249 1.499885 -6.368895 -11.791318 -0.329449 8.930744 19.596331 -2.779376 7.927226 -3.613038 4.957294 9.361239 8.495739 7.277427 -3.065415 1.514638 -10.357884 0.702530 -7.736857 5.593136 -11.295276 -11.111115 6.560916 2.458481 -5.000827 -8.964845 -0.782730 9.994526 
-0.498546 48.883389 1.755018 -0.156254 0.400389 -0.626092 0.000000 0.000000 0.000000 -4.687525 -0.184926 0.210476 4.327305 0.087588 0.619768 5.693360 0.009753 0.536615 -0.175362 9.441510 -3.694318 -3.788119 2.360337 -11.747667 0.449987 -6.067685 18.111086 1.723425 -3.902307 -3.501891 -0.205972 -9.800873 -3.763974 1.657526 -6.889691 -11.215961 -0.335910 8.884966 20.592289 -3.088559 8.299439 -3.643256 4.635570 9.536646 8.569326 8.022548 -3.045949 1.437971 -10.685803 0.731456 -7.783340 5.321143 -11.278282 -11.050115 7.173412 2.515494 -4.844001 -9.233263 -0.806280 9.947603 
-0.503958 48.881618 1.740005 -0.156256 0.488279 -0.684925 0.000000 0.000000 0.000000 -4.687539 -0.233591 0.175403 4.307571 -0.067821 0.767257 5.556626 0.175533 0.644954 -0.205320 9.258039 -3.697239 -3.591461 2.459173 -11.650300 0.477791 -6.140922 18.046633 1.965862 -3.858125 -3.516306 -0.234086 -9.955153 -3.760138 1.828455 -6.751216 -11.478701 -0.325820 8.837152 20.423649 -2.780021 8.093525 -3.613816 4.682558 9.455239 8.541634 7.903624 -3.064800 1.561674 -10.607708 0.742959 -7.787003 5.123503 -11.382482 -11.065754 7.469384 2.497635 -4.787986 -9.326995 -0.824797 9.962783 
-0.531769 48.871555 1.704769 -0.175787 0.468748 -0.665501 0.000000 0.000000 0.000000 -4.648487 -0.262805 0.079962 4.317446 -0.148221 0.875223 5.488177 0.468057 0.736245 -0.178780 9.266444 -3.667853 -3.563717 2.429388 -11.746261 0.469504 -6.086232 18.133036 2.098416 -3.781501 -3.523698 -0.276250 -9.980670 -3.724963 1.925628 -6.702508 -11.434604 -0.313408 8.878947 20.081652 -2.442750 8.212177 -3.585584 4.508010 9.535918 8.537532 8.218679 -3.055896 1.463724 -10.711181 0.733955 -7.826076 4.911876 -11.357137 -10.985679 7.843041 2.474751 -4.892953 -9.481844 -0.829934 9.953928 
-0.548130 48.868916 1.691668 -0.302742 0.400385 -0.705241 0.000000 0.000000 0.000000 -4.511753 -0.223913 0.115325 4.024509 -0.099750 0.892638 6.113281 0.029269 0.819040 -0.137045 9.212785 -3.543694 -3.498154 2.272185 -11.937503 0.461336 -6.013293 18.198378 1.913167 -3.479777 -3.512679 -0.271178 -9.765356 -3.596105 1.788484 -6.810162 -11.428224 -0.325805 8.845632 20.443392 -2.503474 8.081242 -3.588184 4.604617 9.621733 8.598122 8.304333 -3.035639 1.293343 -10.788363 0.735261 -7.848678 4.997846 -11.324573 -11.034719 7.886150 2.545032 -4.730767 -9.505170 -0.829625 9.868425 
-0.555553 48.873318 1.680343 -0.322275 0.429681 -0.842261 0.000000 0.000000 0.000000 -4.531301 -0.272583 0.197384 4.073677 -0.130206 1.017352 5.976563 0.009755 0.868693 -0.132231 9.476360 -3.557876 -3.757903 2.243428 -11.716189 0.459974 -6.092654 18.181072 2.071963 -3.352625 -3.512683 -0.127759 -9.696711 -3.604413 1.855080 -7.015983 -11.285315 -0.348426 8.831467 20.963263 -2.437222 8.281008 -3.585011 4.751153 9.611840 8.678710 8.115910 -3.092971 1.312119 -10.701896 0.737011 -7.824443 4.985477 -11.398364 -11.102551 7.919311 2.634497 -4.480341 -9.497594 -0.827503 9.783013 
-0.566124 48.861870 1.656257 -0.341807 0.449211 -0.881586 0.000000 0.000000 0.000000 -4.511753 -0.223913 0.203215 3.917294 -0.403716 1.221905 6.210912 0.263442 0.877665 -0.121189 9.171822 -3.534621 -3.453640 2.196004 -11.631966 0.458526 -6.172653 18.152975 1.851397 -3.591184 -3.509251 -0.235534 -9.670453 -3.594904 1.787741 -6.859277 -11.379701 -0.325680 8.846911 20.423904 -1.736474 7.942277 -3.512121 4.579681 9.629122 8.647324 8.421567 -3.093418 1.380009 -10.809546 0.741136 -7.846166 4.772654 -11.441261 -11.069932 8.308845 2.634181 -4.378151 -9.713096 -0.840217 9.782625 
-0.577451 48.883636 1.645736 -0.458998 0.439439 -0.960552 0.000000 0.000000 0.000000 -4.414106 -0.253153 0.224620 3.868827 -0.356133 1.307588 6.308576 0.224429 0.977334 -0.156380 9.251333 -3.457673 -3.594146 2.252928 -11.844777 0.473072 -6.050956 18.522533 1.624379 -3.565915 -3.486191 -0.125992 -9.598440 -3.510170 1.866878 -6.995748 -11.404060 -0.326532 8.813145 20.491346 -1.760932 8.019063 -3.514622 5.028048 9.587986 8.729827 7.796357 -3.084142 1.411656 -10.507399 0.721313 -7.849721 5.028439 -11.366587 -11.020599 7.856526 2.544849 -4.469166 -9.401995 -0.812167 9.787796 
-0.577075 48.874451 1.632095 -0.625028 0.546842 -0.875106 0.000000 0.000000 0.000000 -4.267654 -0.340849 0.132856 3.703137 -0.369041 1.253152 6.982419 0.117141 1.051372 -0.303282 9.102500 -3.305830 -3.577847 2.378938 -12.010515 0.473803 -5.959092 18.432095 1.693550 -3.414937 -3.499976 -0.195491 -9.611853 -3.365039 1.888740 -6.936312 -11.541408 -0.338629 8.764777 20.784357 -1.703419 7.885584 -3.510398 5.036623 9.441106 8.565154 7.940422 -2.966177 1.525252 -10.512172 0.737047 -7.917776 5.067922 -11.513783 -11.127965 8.221075 2.554969 -4.368438 -9.605998 -0.835217 9.814500 
-0.589784 48.862621 1.608348 -0.615248 0.380837 -0.843933 0.000000 0.000000 0.000000 -4.218789 -0.243479 0.115616 3.508234 -0.213922 1.372389 7.343748 0.107396 1.198810 -0.396024 9.244014 -3.253460 -3.691344 2.448323 -11.782204 0.469538 -6.068623 18.103254 1.726037 -3.305331 -3.501709 -0.221802 -9.414481 -3.318674 1.886718 -7.015186 -11.414946 -0.348414 8.798833 20.864784 -2.342180 8.179221 -3.568737 4.684378 9.702497 8.677410 8.622365 -2.995035 1.343562 -10.822930 0.750701 -7.917443 4.968625 -11.345705 -11.026241 8.339169 2.575985 -4.408864 -9.674285 -0.839799 9.771058 
